<svg width="45" height="45" viewBox="0 0 45 45" fill="none" xmlns="http://www.w3.org/2000/svg">
<rect width="45" height="45" rx="22.5" fill="url(#paint0_linear_76_10)"/>
<path d="M21.46 9.63508L8.585 16.4301C8.48413 16.4872 8.40021 16.57 8.34183 16.6702C8.28345 16.7703 8.25269 16.8842 8.25269 17.0001C8.25269 17.116 8.28345 17.2298 8.34183 17.33C8.40021 17.4301 8.48413 17.513 8.585 17.5701L21.46 24.3651C21.6263 24.4534 21.8117 24.4996 22 24.4996C22.1883 24.4996 22.3737 24.4534 22.54 24.3651L28.6337 21.1501L22.1013 18.1351C21.9251 18.0538 21.7702 17.9327 21.649 17.7812C21.5277 17.6298 21.4434 17.4522 21.4027 17.2625C21.3619 17.0729 21.3659 16.8763 21.4142 16.6884C21.4626 16.5006 21.554 16.3265 21.6813 16.1801L29.4863 19.8976C29.9766 20.1311 30.3908 20.4989 30.6809 20.9581C30.9709 21.4174 31.1249 21.9494 31.125 22.4926V24.8576C30.9477 25.0314 30.8261 25.2541 30.7759 25.4972C30.7256 25.7404 30.7489 25.993 30.8428 26.2228C30.9366 26.4527 31.0968 26.6494 31.3029 26.7879C31.509 26.9263 31.7517 27.0003 32 27.0003C32.2483 27.0003 32.491 26.9263 32.6971 26.7879C32.9032 26.6494 33.0634 26.4527 33.1572 26.2228C33.2511 25.993 33.2744 25.7404 33.2241 25.4972C33.1739 25.2541 33.0523 25.0314 32.875 24.8576V22.4926C32.875 21.3726 32.4713 20.3151 31.7713 19.4938L35.4163 17.5701C35.5171 17.513 35.601 17.4301 35.6594 17.33C35.7178 17.2298 35.7486 17.116 35.7486 17.0001C35.7486 16.8842 35.7178 16.7703 35.6594 16.6702C35.601 16.57 35.5171 16.4872 35.4163 16.4301L22.5413 9.63508C22.3748 9.54655 22.1892 9.50024 22.0006 9.50024C21.8121 9.50024 21.6265 9.54655 21.46 9.63508Z" fill="white"/>
<path d="M29.5 22.625V23.4725C28.6538 25.555 27.225 29.4225 27.0175 32.2475C25.645 32.8362 23.9775 33.25 22 33.25C15.125 33.25 12 28.25 12 28.25V21.375L21.105 25.9275C21.4338 26.0913 21.5975 26.1737 21.77 26.2062C21.922 26.2348 22.078 26.2348 22.23 26.2062C22.4025 26.1737 22.5675 26.0913 22.895 25.9275L29.5 22.625Z" fill="white"/>
<path d="M33.935 27.3337C33.7007 27.6205 33.4055 27.8515 33.0708 28.01C32.7361 28.1684 32.3703 28.2504 32 28.25C31.6297 28.2504 31.2639 28.1684 30.9292 28.01C30.5945 27.8515 30.2993 27.6205 30.065 27.3337C29.53 28.7137 28.875 30.7787 28.875 32.625C28.875 32.625 30.125 34.5 32 34.5C33.875 34.5 35.125 32.625 35.125 32.625C35.125 30.7787 34.47 28.7137 33.935 27.3337Z" fill="white"/>
<defs>
<linearGradient id="paint0_linear_76_10" x1="0" y1="22.5" x2="57.5215" y2="22.5" gradientUnits="userSpaceOnUse">
<stop stop-color="#282020"/>
</linearGradient>
</defs>
</svg>
